<svg version="1.1" id="Layer_1" xmlns="http://www.w3.org/2000/svg" xmlns:xlink="http://www.w3.org/1999/xlink" x="0px" y="0px"
	 viewBox="-192 283.2 226.8 226.8" enable-background="new -192 283.2 226.8 226.8" xml:space="preserve">
<linearGradient id="SVGID_1_" gradientUnits="userSpaceOnUse" x1="-192" y1="396.615" x2="34.77" y2="396.615">
	<stop  offset="1.885776e-03" style="stop-color:#00D2FF"/>
	<stop  offset="0.9996" style="stop-color:#3A7BD5"/>
</linearGradient>
<circle fill="url(#SVGID_1_)" cx="-78.6" cy="396.6" r="113.4"/>
<path fill="#FFFFFF" d="M20.3,388.7c-0.4-5-1.9-9.1-4.1-11.2c-1.5-1.4-13.2-13-13.3-13.1l-0.1-0.1l-0.2-0.1c-0.3-0.2-7.4-4-13.3,0.6
	c-4.7-4.8-9.7-9.9-10.7-11c-2.3-2.5-6.7-4.9-9.7-5.2c-3.5-0.3-7.6,4-8.9,6.5c-0.6,1.1-0.9,2.4-0.9,3.5c-1.1-0.5-2.4-0.9-4-1
	c-5.1-0.2-9.8,5.6-10.1,9.5c-0.1,1.4,0.3,2.9,0.9,4.1c-0.5-0.1-0.9-0.1-1.1-0.1c-2.2-0.2-5,1.1-7,3.2c1.5-2.4,2.5-5,2.5-5.2
	c1.3-3.8-3.2-8.3-3.7-8.8l-0.1-0.1c-1.4-1.1-3.1-1.6-5.2-1.6c-2.6,0-4.8,0.9-4.9,0.9l-0.1,0c-1.5,0.7-3.6,2.8-5.5,4.9l-4.6-3.9
	l-0.1-0.1c-5.1-3.5-10.7,2.2-11.1,2.7c-2.9,2.9-3.1,6.3-2.6,8.7c-1.5-0.6-3-0.9-4.2-0.9c0.3-0.9,0.3-1.8,0.2-2.9c0-0.4,0-0.8,0-1.3
	c0-3.8-6.1-8.9-9.7-8.9c-1.6,0-3.2,0.3-4.4,0.7c0-0.2,0-0.4,0-0.5c0.1-1.6-0.6-3.4-2.1-5.1c-2.1-2.4-5.5-4.3-7.6-4.3
	c-3.1,0-6.4,2.4-6.8,2.6l-0.1,0.1l-12.9,12.5c-1.8-0.7-3.3-1.3-4.3-1.7c-5.6-2.2-9.8,0-9.9,0.1l-0.2,0.1l-0.1,0.1
	c-0.4,0.4-10.4,10.1-14,13.8c-3.6,3.9-3.8,8.8-3.8,9.7c-1,7.8,4.8,29.5,5,30.4l0,0.1c0.3,0.8,2.7,7.9,4.2,10
	c2.7,3.7,12.3,15.9,22.5,16.7c0.3,0.1,1.6,0.2,3.5,0.2c4.6,0,12.8-1.1,19.4-7.7c8.3-8.4,39.3-39.5,43.8-44l48.2,48.1l0.1,0.1
	l0.1,0.1c0.4,0.3,7.3,4.5,15.7,4.5c4,0,8.4-1,12.6-3.8c0.9-0.6,16.4-10.8,18-25.1C16.1,414,20.8,394.2,20.3,388.7z M-64.8,379
	l-0.8-0.8c0.5-0.5,1-1,1.4-1.4c0.1-0.1,0.2-0.2,0.4-0.4C-64.3,377.2-64.6,378.1-64.8,379z M-72.5,362c0.3-0.1,2-0.7,3.8-0.7
	c1.4,0,2.6,0.3,3.4,1c1.2,1.2,3.5,4.2,3,5.9c-0.5,1.3-2,4.9-3.8,6.6c-0.5,0.5-1.1,1.1-1.7,1.7c-2.1,2.2-4.7,4.9-7.3,4.9
	c-3.3,0-5.9-3-6.8-5.2c-0.6-1.5-0.1-3.7,0.3-4.6C-79,368.4-74.5,363.1-72.5,362z M-98.6,374.4c2.7,1.1,4.4,4.6,4.6,4.8
	c0.9,2-0.6,5-1.4,6.1c-1.5,1.5-18.8,19-23.6,23.4c-1,0.9-2,1.3-3.2,1.2c-3-0.2-5.7-3.3-5.7-3.3l-0.1-0.1c-2.1-2.1-0.9-6.6-0.1-8.6
	c0.1-0.1,0.3-0.2,0.4-0.2l0.1-0.1l0.1-0.1c0.2-0.2,21.4-21.6,23.7-23.8c0,0,0.1-0.1,0.1-0.1C-102.8,373.7-100.8,373.5-98.6,374.4z
	 M-116.1,361.6c1-0.3,3-1,4.8-1c2.3,0,7,4.1,7,6.1c0,0.5,0,0.9,0,1.3c0.1,1.9,0.1,2.3-1.4,3.8c-2.2,2.2-21.9,22.1-23.6,23.7
	c-0.8,0.5-5,2.8-8.1-1.2l-0.1-0.1c-0.1-0.1-1.3-1.4-1.7-4c1.8,0.4,3.6,0.7,5.4,0.7c9.3,0,14.3-8,14.3-12.1c0-4.3-4.9-6.7-5.5-7
	c1.7-1.9,4.7-5,6.6-6.8C-117.1,364.1-116.5,362.8-116.1,361.6z M-130.5,353.5c0.9-0.6,3.3-2,5.1-2c1.2,0,3.9,1.4,5.6,3.3
	c1,1.1,1.5,2.3,1.4,3.1l0,0.2l0,0.2c0,0,0.5,2.7-1.8,4.8c-2.3,2.1-6,6.1-7.5,7.7c-3.4-1.4-9.5-3.8-14.6-5.8L-130.5,353.5z
	 M-124.8,433.9c-8.4,8.5-20.4,6.7-20.5,6.7l-0.1,0c-9.3-0.7-18.7-13.1-20.5-15.6c-1-1.3-2.8-6.2-3.8-9.2c-0.3-1.1-5.9-22.4-4.9-29.4
	l0-0.1l0-0.1c0,0-0.1-4.5,3-7.8c3.2-3.5,12.4-12.3,13.7-13.6c0.7-0.3,3.6-1.4,7.5,0.1c5,1.9,23.3,9.3,24.2,9.6
	c1.1,0.5,3.9,2.3,3.9,4.5c0,2.7-4.1,9.3-11.6,9.3c-7.7,0-16.7-6-16.8-6.1l-1-0.7l-8.2,9l0.9,0.9c3.6,3.5,7.3,8.4,7,10.1
	c-0.6,3.5-1.4,6.6-4.8,10.1c-0.5,0.5-0.5,1.4,0,1.9s1.4,0.5,2,0c4-4,5-7.8,5.6-11.6c0.6-3.4-4.5-9.1-6.8-11.6l2.6-2.9
	c1.6,1.3,3.8,2.5,6.2,2.5c1.2,0,2.5-0.3,3.7-1.1c0.4,0.2,0.9,0.3,1.4,0.5c0.3,4,2.2,6.3,2.6,6.7c1.9,2.5,4.3,3.3,6.5,3.3
	c0.6,0,1.1-0.1,1.7-0.2c-0.7,2.7-1.2,6.7,1.4,9.3c0.4,0.4,3.6,4,7.6,4.2c0.1,0,0.3,0,0.4,0c1.8,0,3.4-0.7,4.8-2
	c5-4.6,23-22.8,23.8-23.6l0.1-0.1l0.1-0.1c0.1-0.2,2.5-3.8,2.1-7.2l10.1,10C-85.5,394.4-116.4,425.5-124.8,433.9z M-147.1,387.4
	c-1.7,0-3.4-1-4.4-1.8l0.4-0.4C-150.3,385.7-148.9,386.6-147.1,387.4z M13,415.2l0,0.2c-1.4,13.2-16.6,23.1-16.8,23.1l0,0
	c-10.7,7.4-23.7,0.2-25.2-0.6l-65.4-65.3c-0.4-0.8-1.8-4.3,1.4-7.5l0,0c0,0,4.2-4.5,7.5-2.3l4.5,3.8c-1.5,1.7-2.6,3.2-2.8,3.6
	l-0.1,0.1l-0.1,0.2c-0.1,0.2-1.5,3.8-0.3,6.8c1.1,2.7,4.5,6.9,9.4,6.9c2.9,0,5.4-2,7.5-4l2.8,3c0.6,2.4,1.8,3.9,1.8,4l0,0.1
	l23.1,23.2c0.3,0.3,0.6,0.4,1,0.4c0.4,0,0.7-0.1,1-0.4c0.5-0.5,0.5-1.4,0-2l-22.9-23.1c-0.3-0.4-1.9-2.9-1.4-5.9
	c0.6-3.4,4.8-5.9,6.7-5.7l0.1,0h0.1c0,0,0,0,0,0c0.8,0,3.4,0.3,4.5,1.5c1.8,2,21.3,21.6,22.2,22.5c0.5,0.5,1.4,0.5,2,0
	c0.5-0.5,0.5-1.4,0-1.9c-0.2-0.2-20.3-20.5-22.1-22.4c-0.4-0.5-1-0.9-1.5-1.2c-0.7-0.9-2.1-3.1-2-5c0.1-2.3,3.6-7,7.2-6.9
	c2.2,0.1,3.8,1,4.7,1.8c0,0,0,0,0.1,0.1c0.5,0.4,0.8,0.8,0.9,0.8l0,0.1l23.8,24.5c0.3,0.3,0.6,0.4,1,0.4c0.3,0,0.7-0.1,1-0.4
	c0.5-0.5,0.6-1.4,0-1.9l-23.7-24.4c-0.1-0.1-0.4-0.5-0.8-0.8c-0.1-0.8-0.3-2.6,0.5-4c1.2-2.1,4.4-5.3,6.3-5.1
	c2.3,0.2,6.1,2.3,7.9,4.3c1.9,2.1,18.3,18.7,19.9,20.3c0.8,1.3,7.7,12.3,9,18.5c0.1,0.6,0.7,1.1,1.3,1.1c0.1,0,0.2,0,0.3,0
	c0.7-0.2,1.2-0.9,1.1-1.6c-1.5-7.1-9.1-19.1-9.4-19.6l-0.1-0.1l-0.1-0.1c-0.1-0.1-3.4-3.4-7.3-7.4c4-2.9,8.9-0.7,9.8-0.3
	c1.4,1.4,11.7,11.7,13.2,13c0.6,0.6,2.7,3,3.2,9.4C18,393.2,14.4,409.3,13,415.2z"/>
</svg>
